<svg width="90" height="90" viewBox="0 0 90 90" fill="none" xmlns="http://www.w3.org/2000/svg">
<path d="M45 46C33.954 46 25 37.046 25 26C25 14.954 33.954 6 45 6C56.046 6 65 14.954 65 26C65 37.046 56.046 46 45 46ZM45 42C49.2435 42 53.3131 40.3143 56.3137 37.3137C59.3143 34.3131 61 30.2435 61 26C61 21.7565 59.3143 17.6869 56.3137 14.6863C53.3131 11.6857 49.2435 10 45 10C40.7565 10 36.6869 11.6857 33.6863 14.6863C30.6857 17.6869 29 21.7565 29 26C29 30.2435 30.6857 34.3131 33.6863 37.3137C36.6869 40.3143 40.7565 42 45 42ZM54.782 19.046L38.046 35.782C36.9518 35.0042 35.9958 34.0482 35.218 32.954L51.954 16.218C53.0482 16.9958 54.0042 17.9518 54.782 19.046Z" fill="black"/>
</svg>
