<svg width="32" height="32" viewBox="0 0 32 32" fill="none" xmlns="http://www.w3.org/2000/svg">
<path d="M20 5.33334L28 8.00001V14.6667H24V25.3333C24 25.687 23.8595 26.0261 23.6095 26.2762C23.3594 26.5262 23.0203 26.6667 22.6667 26.6667H9.33333C8.97971 26.6667 8.64057 26.5262 8.39052 26.2762C8.14048 26.0261 8 25.687 8 25.3333V14.6667H4V8.00001L12 5.33334C12 6.39421 12.4214 7.41163 13.1716 8.16177C13.9217 8.91192 14.9391 9.33334 16 9.33334C17.0609 9.33334 18.0783 8.91192 18.8284 8.16177C19.5786 7.41163 20 6.39421 20 5.33334Z" stroke="black" stroke-width="2" stroke-linecap="round" stroke-linejoin="round"/>
</svg>
