<svg width="32" height="32" viewBox="0 0 32 32" fill="none" xmlns="http://www.w3.org/2000/svg">
<path fill-rule="evenodd" clip-rule="evenodd" d="M16 4C19.1826 4 22.2348 5.26428 24.4853 7.51472C26.7357 9.76515 28 12.8174 28 16V24C28 25.0609 27.5786 26.0783 26.8284 26.8284C26.0783 27.5786 25.0609 28 24 28H22.1573C21.6878 27.9999 21.2266 27.8758 20.8204 27.6403C20.4142 27.4047 20.0774 27.0661 19.844 26.6587C18.596 27.5133 17.2213 28 16 28C14.7787 28 13.404 27.512 12.156 26.6587C11.9226 27.0661 11.5858 27.4047 11.1796 27.6403C10.7734 27.8758 10.3122 27.9999 9.84267 28H8C6.93913 28 5.92172 27.5786 5.17157 26.8284C4.42143 26.0783 4 25.0609 4 24V16C4 12.8174 5.26428 9.76515 7.51472 7.51472C9.76515 5.26428 12.8174 4 16 4ZM16 6.66667C13.5246 6.66667 11.1507 7.65 9.40034 9.40034C7.65 11.1507 6.66667 13.5246 6.66667 16V24C6.66667 24.3536 6.80714 24.6928 7.05719 24.9428C7.30724 25.1929 7.64638 25.3333 8 25.3333H9.84267L10.1213 24.776C8.88133 23.2387 8 21.1733 8 18.6667C8 17.6133 8.17733 16.568 8.49733 15.584C8.58671 15.3094 8.76281 15.0712 8.99917 14.9053C9.23554 14.7394 9.51937 14.6547 9.808 14.664C10.8021 14.6912 11.7875 14.4731 12.6773 14.0289C13.567 13.5847 14.3336 12.9282 14.9093 12.1173C15.0324 11.9424 15.1957 11.7996 15.3855 11.701C15.5753 11.6024 15.7861 11.551 16 11.551C16.2139 11.551 16.4247 11.6024 16.6145 11.701C16.8043 11.7996 16.9676 11.9424 17.0907 12.1173C17.6664 12.9282 18.433 13.5847 19.3227 14.0289C20.2125 14.4731 21.1979 14.6912 22.192 14.664C22.4806 14.6547 22.7645 14.7394 23.0008 14.9053C23.2372 15.0712 23.4133 15.3094 23.5027 15.584C23.8227 16.568 24 17.612 24 18.6667C24 21.1733 23.1187 23.2387 21.8787 24.776L22.1573 25.3333H24C24.3536 25.3333 24.6928 25.1929 24.9428 24.9428C25.1929 24.6928 25.3333 24.3536 25.3333 24V16C25.3333 13.5246 24.35 11.1507 22.5997 9.40034C20.8493 7.65 18.4754 6.66667 16 6.66667ZM16 14.92C14.5872 16.2786 12.7545 17.1165 10.8027 17.296C10.7128 17.7474 10.6673 18.2064 10.6667 18.6667C10.6667 20.824 11.5427 22.496 12.6747 23.636C13.848 24.8187 15.1947 25.3333 16 25.3333C16.8053 25.3333 18.1507 24.8187 19.3253 23.636C20.4573 22.496 21.3333 20.824 21.3333 18.6667C21.3327 18.2069 21.2871 17.7483 21.1973 17.2973C19.2454 17.1174 17.4126 16.2791 16 14.92Z" fill="black"/>
</svg>
