<svg width="32" height="32" viewBox="0 0 32 32" fill="none" xmlns="http://www.w3.org/2000/svg">
<path fill-rule="evenodd" clip-rule="evenodd" d="M6.70667 18.268L7.65334 10.6813C7.72147 10.1355 7.90142 9.60967 8.18197 9.13657C8.46251 8.66347 8.83761 8.25331 9.28383 7.93172C9.73005 7.61013 10.2378 7.38403 10.7753 7.26753C11.3129 7.15104 11.8687 7.14666 12.408 7.25467C13.5507 7.484 14.832 7.948 16 7.948C17.168 7.948 18.4493 7.484 19.592 7.25467C20.1312 7.14686 20.6869 7.1514 21.2243 7.26799C21.7617 7.38458 22.2692 7.61072 22.7153 7.93229C23.1614 8.25386 23.5363 8.66395 23.8168 9.13694C24.0973 9.60994 24.2772 10.1357 24.3453 10.6813L25.2947 18.268C26.8093 18.6467 29.3333 19.38 29.3333 21.3333C29.3333 23.4613 26.3827 24.1627 24.7733 24.52C22.4827 25.0293 19.3813 25.3333 16 25.3333C12.6187 25.3333 9.51734 25.0293 7.22667 24.52C5.61601 24.1627 2.66667 23.4613 2.66667 21.3333C2.66667 19.38 5.19067 18.6467 6.70667 18.268ZM10.3 11.0133C10.3227 10.8313 10.3826 10.6559 10.4761 10.4981C10.5696 10.3404 10.6947 10.2036 10.8435 10.0963C10.9923 9.98907 11.1616 9.91367 11.3409 9.87485C11.5202 9.83602 11.7055 9.8346 11.8853 9.87067C13.2173 10.1373 14.632 10.6147 16 10.6147C17.368 10.6147 18.7827 10.1373 20.1147 9.87067C20.2945 9.8346 20.4799 9.83602 20.6591 9.87485C20.8384 9.91367 21.0077 9.98907 21.1565 10.0963C21.3053 10.2036 21.4304 10.3404 21.5239 10.4981C21.6174 10.6559 21.6774 10.8313 21.7 11.0133L22.5413 17.752C20.6227 17.484 18.3813 17.3333 16 17.3333C13.6187 17.3333 11.3773 17.484 9.45867 17.7507L10.3 11.0133ZM7.80401 21.9187C5.73334 21.4587 5.73334 21.2107 7.80401 20.7507C9.85467 20.2933 12.7533 20 16 20C19.2467 20 22.1453 20.2933 24.196 20.7493C26.2667 21.2093 26.2667 21.456 24.196 21.9173C22.1453 22.3733 19.2467 22.6667 16 22.6667C12.7533 22.6667 9.85467 22.3747 7.80401 21.9187Z" fill="black"/>
</svg>
