<svg width="32" height="32" viewBox="0 0 32 32" fill="none" xmlns="http://www.w3.org/2000/svg">
<path fill-rule="evenodd" clip-rule="evenodd" d="M10.3667 7.43066C9.07333 8.73332 8.23733 10.624 7.9 12.932C7.87254 13.1208 7.80489 13.3015 7.7016 13.4619C7.59831 13.6224 7.4618 13.7588 7.30128 13.8619C7.14076 13.965 6.95997 14.0325 6.77114 14.0598C6.5823 14.0871 6.38981 14.0735 6.20666 14.02C5.83866 13.9133 5.608 14.2493 5.492 14.5613C5.34133 14.9667 5.296 15.5547 5.47066 16.208C5.62266 16.7747 6.16 17.9547 6.924 17.884C7.22196 17.8562 7.52061 17.9295 7.77189 18.092C8.02317 18.2545 8.21247 18.4968 8.30933 18.78C9.664 22.7427 13.0653 25.3333 16 25.3333C18.9347 25.3333 22.336 22.7427 23.6907 18.78C23.7874 18.4959 23.9773 18.2527 24.2294 18.0899C24.4815 17.927 24.7812 17.854 25.08 17.8827C25.844 17.956 26.3827 16.7747 26.5347 16.208C26.7093 15.5547 26.664 14.9667 26.5133 14.5613C26.396 14.248 26.1653 13.912 25.796 14.02C25.6128 14.0739 25.4201 14.0879 25.231 14.0609C25.042 14.0339 24.8609 13.9667 24.7001 13.8636C24.5392 13.7606 24.4024 13.6242 24.2989 13.4637C24.1954 13.3032 24.1276 13.1223 24.1 12.9333C23.7627 10.6253 22.9267 8.73332 21.6333 7.43199C20.3627 6.15199 18.5467 5.33332 16 5.33332C13.4533 5.33332 11.6373 6.15332 10.3667 7.43066ZM8.47466 5.55066C10.3013 3.71332 12.8293 2.66666 16 2.66666C19.1707 2.66666 21.6973 3.71332 23.5253 5.55199C25.0667 7.10266 26.032 9.13866 26.5253 11.3827C26.5991 11.396 26.672 11.4129 26.744 11.4333C27.9027 11.7427 28.6493 12.6547 29.0133 13.6333C29.3773 14.6147 29.412 15.7733 29.1107 16.8987C28.688 18.476 27.5573 20.032 25.908 20.452C24.1053 24.7867 20.1147 28 16 28C11.8853 28 7.89333 24.784 6.092 20.4507C4.44533 20.028 3.31733 18.4733 2.89466 16.8987C2.59333 15.7733 2.628 14.6147 2.992 13.632C3.356 12.6547 4.10266 11.7427 5.26133 11.432C5.33244 11.4133 5.40355 11.3973 5.47466 11.384C5.968 9.13866 6.93333 7.10266 8.47466 5.55066Z" fill="black"/>
</svg>
