<svg width="32" height="32" viewBox="0 0 32 32" fill="none" xmlns="http://www.w3.org/2000/svg">
<path d="M27.985 26.75L25.235 4.75C25.1741 4.26657 24.9388 3.822 24.5733 3.49977C24.2078 3.17755 23.7372 2.99983 23.25 3H8.74998C8.26273 2.99983 7.79218 3.17755 7.42668 3.49977C7.06118 3.822 6.82589 4.26657 6.76498 4.75L4.01498 26.75C3.97951 27.0316 4.00437 27.3175 4.08791 27.5887C4.17145 27.86 4.31177 28.1103 4.49953 28.3231C4.68728 28.536 4.91819 28.7064 5.17689 28.8231C5.4356 28.9398 5.71618 29.0001 5.99998 29H11.0862C11.531 29.0001 11.9631 28.8519 12.3142 28.5789C12.6654 28.3059 12.9155 27.9236 13.025 27.4925L16 15.9925L18.9737 27.485C19.0819 27.9177 19.3316 28.3018 19.6831 28.5763C20.0346 28.8508 20.4677 28.9999 20.9137 29H26C26.2838 29.0001 26.5644 28.9398 26.8231 28.8231C27.0818 28.7064 27.3127 28.536 27.5004 28.3231C27.6882 28.1103 27.8285 27.86 27.9121 27.5887C27.9956 27.3175 28.0205 27.0316 27.985 26.75ZM24.1125 11.9C23.397 11.7358 22.7403 11.3786 22.2136 10.8674C21.6869 10.3561 21.3104 9.71024 21.125 9H23.75L24.1125 11.9ZM23.25 5L23.5 7H8.49998L8.74998 5H23.25ZM8.24998 9H10.875C10.6896 9.71024 10.3131 10.3561 9.78637 10.8674C9.25967 11.3786 8.60292 11.7358 7.88748 11.9L8.24998 9ZM11.0862 27H5.99998L7.62498 13.9663C8.92745 13.828 10.1491 13.268 11.104 12.3715C12.0589 11.475 12.6948 10.2912 12.915 9H15V11.875L11.0862 27ZM20.9112 26.9925L17 11.875V9H19.085C19.3051 10.2912 19.941 11.475 20.896 12.3715C21.8509 13.268 23.0725 13.828 24.375 13.9663L26 27L20.9112 26.9925Z" fill="black"/>
</svg>
